G04 #@! TF.FileFunction,Legend,Bot*
%FSLAX46Y46*%
G04 Gerber Fmt 4.6, Leading zero omitted, Abs format (unit mm)*
G04 Created by KiCad (PCBNEW (2015-12-07 BZR 6353, Git 2667109)-product) date 06.01.2016 02:58:36*
%MOMM*%
G01*
G04 APERTURE LIST*
%ADD10C,0.100000*%
%ADD11C,0.150000*%
G04 APERTURE END LIST*
D10*
D11*
X120082362Y-99232034D02*
X119587388Y-99727008D01*
X120435916Y-100575536D02*
X120930890Y-100080562D01*
X121314425Y-100442601D02*
X120819451Y-100937575D01*
X121667979Y-101786103D02*
X122162953Y-101291129D01*
X118494256Y-97594150D02*
X117787150Y-98301256D01*
X118741744Y-99255850D02*
X119448850Y-98548744D01*
X118766307Y-102058370D02*
X118833650Y-102058370D01*
X118968337Y-101991026D01*
X119035681Y-101923683D01*
X119103025Y-101788995D01*
X119103025Y-101654308D01*
X119069353Y-101553293D01*
X118968338Y-101384935D01*
X118867322Y-101283919D01*
X118698963Y-101182904D01*
X118597948Y-101149232D01*
X118463261Y-101149232D01*
X118328574Y-101216576D01*
X118261230Y-101283919D01*
X118193887Y-101418606D01*
X118193887Y-101485950D01*
X117924513Y-101755324D02*
X117857170Y-101755324D01*
X117756155Y-101788995D01*
X117587795Y-101957355D01*
X117554124Y-102058370D01*
X117554124Y-102125713D01*
X117587795Y-102226728D01*
X117655139Y-102294072D01*
X117789826Y-102361415D01*
X118597948Y-102361415D01*
X118160215Y-102799148D01*
X117217406Y-102327743D02*
X116746002Y-102799148D01*
X117756155Y-103203209D01*
X119934707Y-103175970D02*
X120002050Y-103175970D01*
X120136737Y-103108626D01*
X120204081Y-103041283D01*
X120271425Y-102906595D01*
X120271425Y-102771908D01*
X120237753Y-102670893D01*
X120136738Y-102502535D01*
X120035722Y-102401519D01*
X119867363Y-102300504D01*
X119766348Y-102266832D01*
X119631661Y-102266832D01*
X119496974Y-102334176D01*
X119429630Y-102401519D01*
X119362287Y-102536206D01*
X119362287Y-102603550D01*
X119092913Y-102872924D02*
X119025570Y-102872924D01*
X118924555Y-102906595D01*
X118756195Y-103074955D01*
X118722524Y-103175970D01*
X118722524Y-103243313D01*
X118756195Y-103344328D01*
X118823539Y-103411672D01*
X118958226Y-103479015D01*
X119766348Y-103479015D01*
X119328615Y-103916748D01*
X118991898Y-104253465D02*
X118857211Y-104388152D01*
X118756195Y-104421825D01*
X118688852Y-104421825D01*
X118520493Y-104388153D01*
X118352135Y-104287138D01*
X118082760Y-104017763D01*
X118049088Y-103916748D01*
X118049088Y-103849405D01*
X118082760Y-103748390D01*
X118217448Y-103613702D01*
X118318463Y-103580030D01*
X118385806Y-103580030D01*
X118486822Y-103613702D01*
X118655180Y-103782061D01*
X118688852Y-103883076D01*
X118688853Y-103950420D01*
X118655181Y-104051435D01*
X118520493Y-104186123D01*
X118419478Y-104219794D01*
X118352134Y-104219794D01*
X118251119Y-104186122D01*
X117055650Y-100652514D02*
X116954635Y-100080094D01*
X117459712Y-100248453D02*
X116752605Y-99541346D01*
X116483230Y-99810720D01*
X116449559Y-99911736D01*
X116449559Y-99979079D01*
X116483230Y-100080094D01*
X116584245Y-100181109D01*
X116685261Y-100214781D01*
X116752604Y-100214781D01*
X116853619Y-100181109D01*
X117122994Y-99911735D01*
X116112841Y-100181109D02*
X115675108Y-100618842D01*
X116180185Y-100652513D01*
X116079169Y-100753529D01*
X116045497Y-100854544D01*
X116045497Y-100921888D01*
X116079170Y-101022904D01*
X116247528Y-101191262D01*
X116348543Y-101224934D01*
X116415887Y-101224934D01*
X116516902Y-101191262D01*
X116718933Y-100989231D01*
X116752605Y-100888216D01*
X116752605Y-100820873D01*
X115708780Y-101999384D02*
X116112841Y-101595323D01*
X115910811Y-101797353D02*
X115203704Y-101090246D01*
X115372063Y-101123918D01*
X115506750Y-101123918D01*
X115607765Y-101090246D01*
M02*
