M48
;DRILL file {KiCad (2015-12-07 BZR 6353, Git 2667109)-product} date 06.01.2016 02:58:39
;FORMAT={-:-/ absolute / metric / decimal}
FMAT,2
METRIC,TZ
T1C0.400
T2C0.800
T3C0.800
T4C0.950
T5C0.998
T6C1.000
T7C1.001
T8C1.016
T9C1.150
T10C1.200
T11C1.400
T12C1.600
T13C3.000
T14C0.762
T15C1.150
T16C1.600
T17C9.000
%
G90
G05
M71
T1
X85.09Y-96.393
X85.344Y-112.395
X89.408Y-48.514
X90.17Y-89.408
X90.424Y-96.393
X90.932Y-112.395
X91.186Y-48.514
X91.44Y-100.965
X92.964Y-48.514
X92.964Y-115.799
X94.742Y-115.57
X96.012Y-115.57
X96.52Y-60.071
X96.571Y-99.593
X97.533Y-97.533
X97.609Y-60.071
X98.925Y-60.071
X99.568Y-112.776
X99.99Y-81.892
X100.212Y-60.071
X100.838Y-101.219
X100.838Y-103.251
X101.219Y-99.771
X101.346Y-105.41
X101.956Y-99.009
X102.108Y-90.678
X102.108Y-101.981
X102.702Y-105.94
X102.87Y-96.012
X103.124Y-90.678
X103.965Y-103.559
X104.029Y-119.507
X104.115Y-89.179
X104.14Y-93.769
X104.14Y-96.012
X104.394Y-101.727
X105.156Y-90.678
X105.258Y-103.607
X106.172Y-90.678
X106.178Y-99.308
X106.426Y-111.125
X107.188Y-90.678
X107.188Y-98.552
X108.204Y-90.678
X108.712Y-72.517
X108.712Y-107.442
X108.878Y-84.963
X108.966Y-96.019
X109.118Y-101.067
X109.271Y-110.642
X109.728Y-83.693
X109.728Y-107.442
X109.781Y-96.762
X111.252Y-84.836
X111.722Y-108.191
X112.014Y-62.484
X112.268Y-106.172
X113.03Y-62.484
X113.817Y-109.83
X114.046Y-62.484
X114.501Y-92.706
X115.062Y-62.484
X116.244Y-97.624
X116.332Y-92.456
X116.586Y-86.854
X118.516Y-108.153
X119.425Y-87.576
X119.507Y-103.124
X119.634Y-91.186
X120.65Y-87.884
X122.892Y-116.078
X122.936Y-101.092
X123.491Y-116.91
X123.952Y-86.487
X124.13Y-99.746
X124.194Y-117.756
X124.206Y-89.789
X126.238Y-51.943
X126.238Y-54.483
X126.238Y-57.023
X126.238Y-59.563
X126.365Y-116.84
X126.845Y-91.591
X127.Y-90.424
X128.016Y-103.632
X128.778Y-51.943
X128.778Y-54.483
X128.778Y-57.023
X128.778Y-59.563
X129.032Y-116.84
X129.794Y-116.078
X129.921Y-95.409
X129.972Y-97.409
X130.48Y-102.667
X130.556Y-115.316
X131.191Y-95.409
X131.318Y-51.943
X131.318Y-54.483
X131.318Y-57.023
X131.318Y-59.563
X131.318Y-99.314
X131.318Y-114.554
X132.08Y-113.792
X132.842Y-113.03
X133.223Y-105.664
X133.35Y-102.108
X133.604Y-112.268
X133.858Y-51.943
X133.858Y-54.483
X133.858Y-57.023
X133.858Y-59.563
X134.075Y-89.826
X134.62Y-102.108
X134.747Y-108.89
X135.28Y-94.894
X135.36Y-74.368
X135.382Y-76.53
X135.89Y-102.108
X135.928Y-107.823
X136.779Y-106.361
X137.792Y-106.361
X137.922Y-83.185
X138.024Y-100.228
X138.938Y-83.185
X138.938Y-103.161
X139.573Y-95.377
X139.954Y-83.185
X139.954Y-113.284
X139.954Y-110.998
X140.97Y-110.998
X141.034Y-113.246
X141.224Y-76.454
X141.275Y-95.072
X142.748Y-93.853
X144.678Y-100.533
X144.678Y-103.175
X145.034Y-63.119
X145.401Y-69.926
X146.304Y-92.075
X148.336Y-100.457
X148.336Y-101.981
X148.348Y-89.705
X149.352Y-95.631
X149.606Y-109.347
X149.622Y-92.853
X149.86Y-69.596
X149.86Y-71.12
X150.258Y-90.805
X150.486Y-78.913
X151.13Y-71.755
X151.384Y-90.805
X154.178Y-108.331
X154.305Y-71.374
X155.194Y-86.36
X157.093Y-87.878
X157.988Y-67.056
X157.988Y-68.072
X159.004Y-67.056
X159.004Y-68.072
X159.004Y-73.406
X159.07Y-112.075
X159.512Y-80.01
X159.961Y-78.598
X161.544Y-76.962
X161.683Y-85.264
X161.799Y-88.015
X163.106Y-98.217
X164.465Y-83.185
X164.638Y-86.661
X165.608Y-85.344
X166.116Y-48.768
X166.624Y-112.395
X166.624Y-113.665
X167.64Y-48.768
X169.164Y-48.768
X171.831Y-56.007
X171.894Y-65.849
T2
X150.368Y-65.278
X155.368Y-65.278
T3
X126.072Y-113.304
X129.524Y-109.852
T4
X140.106Y-57.589
X141.376Y-52.509
X142.646Y-57.589
X143.916Y-52.509
X145.186Y-57.589
X146.456Y-52.509
X147.726Y-57.589
X148.996Y-52.509
X150.266Y-57.589
X151.536Y-52.509
X152.806Y-57.589
X154.076Y-52.509
X155.346Y-57.589
X156.616Y-52.509
X157.886Y-57.589
T5
X117.348Y-72.009
X117.348Y-74.549
X117.348Y-77.089
X117.348Y-79.629
X117.348Y-82.169
X119.888Y-72.009
X119.888Y-74.549
X119.888Y-77.089
X119.888Y-79.629
X119.888Y-82.169
T6
X168.522Y-76.241
X168.522Y-80.841
T7
X84.074Y-89.281
X84.074Y-91.821
T8
X104.064Y-108.255
X106.604Y-108.255
X130.048Y-91.059
T9
X176.022Y-75.691
X176.022Y-81.391
T10
X96.906Y-72.778
T11
X97.524Y-54.077
X103.124Y-54.077
X113.127Y-54.077
X118.727Y-54.077
X174.498Y-87.125
X174.498Y-90.625
X174.498Y-94.125
X174.498Y-97.625
X174.498Y-101.125
X174.498Y-104.625
X174.498Y-108.125
X174.498Y-111.625
T12
X92.456Y-76.588
X93.091Y-68.968
X108.589Y-116.713
X113.589Y-116.713
X118.589Y-116.713
X138.176Y-116.713
X143.176Y-116.713
X148.176Y-116.713
X153.176Y-116.713
X172.009Y-53.453
X172.009Y-58.453
X172.009Y-63.453
X172.009Y-68.453
T13
X85.5Y-45.6
X85.5Y-117.2
X100.Y-44.2
X158.5Y-44.2
X173.Y-45.6
X173.Y-117.2
T14
X83.156Y-99.407
X83.156Y-107.407
T15
X172.522Y-76.041
X172.522Y-81.041
T16
X83.566Y-76.588
X88.646Y-68.968
T17
X129.159Y-81.407
T7
X84.33Y-53.255G85X84.33Y-54.855
G05
X86.83Y-59.055G85X88.43Y-59.055
G05
X90.48Y-52.955G85X90.48Y-55.155
G05
T0
M30
